<svg width="912" height="727" viewBox="0 0 912 727" fill="none" xmlns="http://www.w3.org/2000/svg">
<path d="M349.609 683.813C373.515 683.982 400.872 683.428 416.192 674.246C419.727 672.089 422.505 669.434 421.916 666.67C420.654 660.697 406.259 658.151 394.307 657.155C324.946 651.403 254.071 653.616 183.869 655.941C140.014 657.379 95.7374 658.817 53.9025 665.509C32.1011 668.992 14.8451 678.062 42.2862 682.046C68.8855 685.914 109.711 682.211 137.657 682.375C208.28 682.817 278.986 683.315 349.609 683.813Z" fill="url(#paint0_linear_251_6)"/>
<path d="M349.587 683.813C373.493 683.982 400.85 683.428 416.17 674.246C419.705 672.089 422.483 669.434 421.894 666.67C420.632 660.697 406.237 658.151 394.285 657.155C324.924 651.403 254.049 653.616 183.847 655.941C139.992 657.379 95.7154 658.817 53.8805 665.509C32.0791 668.992 14.8232 678.062 42.2642 682.046C68.8635 685.914 109.689 682.211 137.635 682.375C208.258 682.817 278.964 683.315 349.587 683.813Z" fill="url(#paint1_linear_251_6)"/>
<path d="M443.617 50.9513C442.438 48.6839 441.092 46.3057 441.597 43.9274C441.681 43.4851 441.933 42.9871 442.607 42.8767C442.944 42.8212 443.28 42.9321 443.617 42.9321C445.216 43.098 446.732 42.2131 447.237 41.162C447.742 40.1666 447.657 39.0604 447.826 37.9546C448.331 34.5807 451.782 31.4836 456.496 30.2116C461.209 28.8843 467.018 29.3819 470.974 31.4835C472.068 32.0366 472.995 32.7556 473.5 33.5853C473.92 34.3043 473.92 35.0783 473.835 35.8527C473.667 45.1441 471.899 54.3803 468.448 63.3953C468.196 64.0038 467.943 64.6674 467.438 65.2205C465.923 66.8243 462.641 67.1561 459.779 67.0456C455.486 66.8797 448.499 66.2158 447.573 63.174C446.31 59.026 445.721 54.9888 443.617 50.9513Z" fill="#66544D"/>
<path d="M15.1014 188.431C11.4819 185.5 8.19984 182.292 6.43219 178.697C4.66451 175.102 4.6643 171.01 7.27372 167.691C8.28382 166.419 9.63078 165.258 11.651 164.594C14.0079 163.82 16.9533 163.986 19.3944 164.65C21.8355 165.313 23.94 166.53 25.7918 167.746C27.8962 169.074 29.8327 170.567 31.6004 172.06C32.6947 173.056 34.2932 174.162 36.0609 173.886C36.4818 173.83 36.903 173.664 37.408 173.609C39.5124 173.332 40.7747 175.047 41.364 176.374C42.8791 179.748 44.9836 183.011 47.7613 186.053C49.3607 187.878 51.2966 189.869 50.7073 191.971C50.3705 193.243 49.1082 194.349 47.8456 195.289C45.9938 196.727 43.8892 198.054 41.364 198.884C31.3472 202.368 20.7411 192.966 15.1014 188.431Z" fill="#66544D"/>
<path d="M386.137 425.214C392.45 450.214 391.44 475.764 390.43 501.149C389.167 532.508 387.904 563.866 386.726 595.227C386.557 600.369 386.305 605.458 386.137 610.599C385.716 620.721 385.295 630.899 384.958 641.018C384.874 644.062 384.706 647.215 382.854 650.035C377.046 658.883 358.78 659.823 344.134 659.437C333.949 659.16 322.416 658.497 315.934 653.296C309.453 648.155 310.632 640.632 311.81 634.052C314.588 618.122 315.345 602.084 316.019 586.045C316.439 576.534 316.86 566.963 317.282 557.451C318.376 533.118 304.655 509.833 302.888 480.134C300.11 433.509 270.901 397.395 254.572 352.043C253.814 349.999 275.025 342.697 276.961 341.038C278.392 339.821 280.917 339.379 283.19 339.046C309.116 335.23 336.81 337.001 361.221 343.914C383.106 350.107 370.816 364.82 372.752 377.762C375.193 393.744 382.181 409.341 386.137 425.214Z" fill="#333333"/>
<path d="M134.881 653.118C121.245 650.631 107.104 649.137 92.9626 648.639C80.9256 651.845 68.2149 654.17 55.0836 655.443C51.2958 655.829 47.2561 656.162 44.1417 657.432C41.0272 658.705 39.0912 661.36 41.0272 663.405C42.7107 665.176 46.4137 665.839 49.7807 666.337C75.3699 669.876 101.464 671.98 127.558 672.643C129.158 672.699 130.757 672.699 132.104 672.201C133.114 671.812 133.788 671.149 134.293 670.486C138.501 665.176 138.753 658.705 134.881 653.118Z" fill="#E0C74E"/>
<path d="M257.759 339.923C241.345 331.13 213.988 331.018 200.688 341.915C195.217 346.394 192.608 352.033 189.241 357.287C180.402 371.172 166.093 383.227 153.719 395.891C135.705 414.311 121.564 434.218 107.422 454.02C101.951 461.764 96.3954 469.616 93.4494 477.967C90.5033 486.318 90.2504 494.946 89.9979 503.465C89.4086 523.54 88.9041 543.615 88.3148 563.691C87.978 577.243 87.5573 590.735 87.2205 604.287C86.4631 607.107 85.6203 609.706 84.3578 611.754C82.4218 614.795 80.0656 617.891 79.7288 621.153C79.3081 624.474 80.9907 627.901 80.1489 631.166C79.2233 634.649 75.6885 637.746 75.6885 641.285C75.6885 646.097 82.0855 649.583 88.8193 651.74C90.4185 653.507 92.4389 654.893 95.3011 655.612C99.5939 656.716 104.728 656.66 109.863 655.889C114.577 656.383 119.376 656.716 124.173 656.772C128.887 656.772 134.106 656.387 137.22 654.117C141.092 651.298 140.166 646.928 140.924 643.168C141.934 637.914 146.648 633.323 148.332 628.122C149.51 624.695 149.257 621.1 148.836 617.558C147.994 610.923 146.479 604.287 144.29 597.76C144.29 597.651 144.207 597.539 144.207 597.43C145.638 584.099 146.648 570.274 149.089 557.662C151.698 544.113 153.551 528.629 157.759 515.242C161.547 503.353 157.843 495.279 168.028 485.157C173.584 479.626 180.57 474.758 187.809 470.115C209.189 456.507 217.859 443.07 238.146 428.799C258.516 414.532 275.435 397.055 278.297 377.587C280.402 363.814 274.173 348.716 257.759 339.923Z" fill="#333333"/>
<path d="M341.552 123.908C341.215 115.17 339.027 106.542 331.03 99.7949C328.336 97.5274 325.054 95.5364 322.781 93.1027C320.677 90.8907 319.498 88.3466 317.394 86.1342C315.458 84.0878 312.848 82.3734 310.155 80.7696C307.293 78.9998 304.263 77.2297 300.643 76.1239C296.519 74.8518 291.972 74.52 287.511 74.1328C279.43 73.5244 271.182 72.9159 263.186 74.022C259.145 74.5751 255.273 75.5705 251.485 76.5662C240.206 79.5526 228.505 83.5901 222.276 90.2268C219.162 92.5496 216.384 95.1492 214.027 98.1356C208.219 105.491 204.768 114.174 201.401 122.083C198.033 130.103 190.711 138.62 188.186 146.307C185.66 153.995 189.953 163.397 188.101 171.417C187.681 172.357 180.694 196.47 185.576 193.373C184.229 194.258 185.661 195.53 187.344 195.364C191.3 194.922 192.899 194.258 193.741 193.152C193.657 193.871 193.573 194.59 193.404 195.253C193.068 196.968 197.612 197.41 198.033 195.641C198.623 193.428 199.213 191.161 199.802 188.948C199.886 190.94 199.971 192.875 200.054 194.866C200.139 195.419 200.138 196.083 200.643 196.525C202.159 197.963 205.273 196.857 208.051 196.747C208.892 200.286 216.973 200.397 217.563 197.134C217.731 197.521 217.899 197.908 218.32 198.24C219.835 199.512 222.782 199.457 225.223 199.18C224.886 198.737 224.632 198.295 224.296 197.853C226.905 197.853 229.431 196.802 229.263 194.534C229.095 192.709 228.926 190.774 228.757 188.893C229.178 190.497 229.599 192.046 230.105 193.65C230.525 195.143 230.947 196.747 232.293 198.019C233.64 199.291 236.081 200.176 238.353 199.733C238.438 197.908 238.522 195.972 237.091 194.369C236.333 193.484 235.071 192.709 234.482 191.769C233.556 190.386 233.893 188.893 234.313 187.345C235.492 190.331 237.091 193.262 239.448 196.027C240.458 197.189 242.984 196.636 243.068 195.364C243.32 191.493 242.983 187.732 242.478 184.026C243.236 187.234 243.909 190.442 244.582 193.65C245.087 195.917 251.064 195.419 250.727 193.096C248.454 176.67 251.064 159.968 248.538 143.542C248.118 140.943 244.667 140.002 241.974 140.666C242.984 134.914 243.91 129.163 244.078 123.355C244.162 119.871 235.66 118.931 234.566 122.526C232.798 128.665 232.209 128.665 231.452 135.357C231.367 128.554 230.442 128.444 230.357 121.586C230.357 120.148 230.357 118.71 230.946 117.327C231.367 116.387 232.125 115.502 232.293 114.506C232.461 113.4 231.788 112.405 231.536 111.299C230.947 108.423 235.492 103.5 238.438 101.343C242.226 98.5228 248.118 97.1399 253.421 95.9232C257.546 94.983 261.586 94.043 265.71 93.1581C269.751 92.2733 274.043 91.333 278.168 91.9965C280.02 92.2733 281.788 92.9368 283.724 93.1027C285.744 93.2686 287.68 92.9368 289.7 92.8814C298.117 92.6605 305.02 97.5825 308.135 102.726C313.354 111.299 311.67 120.867 312.175 130.158C310.66 126.895 302.242 127.835 302.326 131.43C302.41 132.813 302.495 134.14 302.579 135.468C299.465 133.974 294.33 134.693 294.077 138.122C292.815 156.428 297.528 174.569 298.033 192.875C298.117 194.313 301.232 194.313 301.4 192.875C301.821 189.778 302.243 186.681 302.663 183.584C303.084 187.013 304.01 190.386 305.778 193.815C306.703 195.585 310.744 195.309 310.828 193.373C310.828 192.046 310.912 190.718 310.997 189.336C311.922 189.502 313.017 189.557 313.942 189.502C314.027 190.331 314.111 191.161 314.195 191.99C314.28 192.599 314.364 193.207 314.616 193.76C314.616 193.871 314.616 193.981 314.616 194.092C314.027 198.737 323.96 199.125 326.233 195.364C327.243 196.028 328.758 196.47 330.02 196.027C328 192.543 327.916 188.672 327.916 184.911C327.916 181.095 327.916 177.279 327.916 173.463L329.431 192.377C329.768 194.147 333.893 194.866 334.566 192.82C334.903 191.824 335.155 190.718 335.492 189.667C335.408 190.94 335.492 192.156 336.502 193.207C337.933 194.645 341.889 194.922 342.731 193.318C342.057 191.05 342.899 188.838 343.656 186.57C343.825 187.455 344.077 188.34 344.245 189.225C345.339 193.981 357.798 192.875 357.04 188.064C353.842 166.107 350.643 144.482 341.552 123.908ZM207.882 192.156C207.209 189.612 207.041 187.068 207.041 184.469C207.041 182.312 207.208 180.155 207.545 177.998C208.05 179.989 208.556 181.98 208.472 183.971C208.388 186.792 208.051 189.446 207.882 192.156Z" fill="#333333"/>
<path d="M324.556 112.615C324.556 96.1891 302.754 82.9156 275.902 82.9156C249.05 82.9156 227.25 96.2445 227.25 112.615C227.25 115.381 227.923 117.98 229.017 120.524C229.017 121.188 229.101 121.851 229.101 122.515C228.933 128.433 229.354 134.406 231.122 140.268C234.573 151.661 243.495 162.225 260.414 168.696C266.054 170.853 272.535 172.512 279.269 172.456C288.36 172.401 296.694 169.359 303.007 165.543C323.799 152.989 325.65 134.074 324.135 116.265C324.388 115.048 324.556 113.832 324.556 112.615Z" fill="#66544D"/>
<path d="M253.768 168.208C256.041 170.199 258.398 172.245 261.765 173.628C265.805 175.231 270.857 175.674 275.823 175.729C281.799 175.785 288.027 175.287 292.825 173.24C296.276 171.747 304.694 167.323 306.798 165.166C314.038 157.976 318.583 152.998 322.455 144.923C323.633 142.49 324.644 139.946 324.559 137.402C323.128 137.015 321.361 137.623 320.688 138.453C320.014 139.282 320.015 140.223 320.015 141.163C319.762 146.085 315.974 150.731 312.102 155.1C308.65 158.971 299.981 162.345 294.678 165.387C289.375 168.429 282.136 170.586 274.644 170.309C273.634 170.254 272.707 170.199 271.865 169.922C270.014 169.313 269.341 168.042 268.751 166.88C268.246 165.719 267.573 164.391 265.805 163.728C264.038 163.064 261.007 163.672 261.175 164.889C261.344 165.663 262.691 166.272 262.775 167.046C262.775 167.931 260.839 168.484 259.324 168.263C257.809 168.042 256.799 167.267 255.789 166.548C253.432 164.834 251.159 163.175 248.802 161.46C247.792 160.741 246.698 160.133 245.267 160.575C247.203 163.23 251.074 165.774 253.768 168.208Z" fill="#333333"/>
<path d="M326.478 110.15C324.963 104.951 325.469 99.0891 319.997 94.886C316.798 92.3969 311.832 91.5675 308.297 89.4105C302.91 86.1474 302.825 84.4331 296.343 82.6079C270.502 75.3073 233.465 86.7005 219.576 101.467C216.209 105.062 220.67 108.38 225.552 108.768C224.205 112.086 223.953 115.736 225.132 119.608C225.469 120.658 228.162 120.714 228.415 119.608C233.718 99.4763 265.199 88.4148 292.472 99.9185C307.876 106.445 316.125 127.24 319.913 138.412C321.512 143.057 332.034 141.841 332.202 137.306C332.539 130.448 328.414 116.898 326.478 110.15Z" fill="#333333"/>
<path d="M326.361 136.353C327.035 136.132 327.793 135.966 328.214 135.579C328.803 135.136 328.887 134.528 328.971 133.919C329.139 131.597 328.466 129.329 327.708 127.061C326.782 124.241 325.941 121.365 325.015 118.544C324.847 118.102 324.677 117.604 324.257 117.272C323.752 116.885 322.91 116.774 322.236 116.664C317.354 116 312.388 115.668 307.506 115.613C307.338 115.613 307.086 115.613 306.917 115.668C306.665 115.779 306.665 116 306.665 116.221C306.748 117.438 307.169 118.655 307.506 119.872C308.853 125.07 308.684 130.38 309.947 135.523C310.452 137.459 311.883 140.667 315.839 140.114C317.522 139.893 319.038 139.118 320.469 138.51C322.321 137.736 324.257 136.961 326.361 136.353Z" fill="#A8A8A8"/>
<path d="M183.545 293.741C190.279 275.269 194.32 256.354 201.98 237.992C209.64 219.63 221.256 201.546 240.953 187.664C242.636 186.447 244.488 185.23 246.761 184.456C248.949 183.682 251.474 183.35 253.915 183.018C269.572 180.972 285.229 178.981 300.885 176.934C303.242 176.602 305.683 176.326 308.04 176.713C310.649 177.156 312.669 178.428 314.522 179.755C321.677 184.677 327.653 190.318 332.282 196.347C341.962 208.957 345.582 223.06 349.033 236.997C357.282 269.794 365.531 302.535 373.696 335.332C374.285 337.654 374.874 340.144 373.696 342.357C372.685 344.346 370.414 345.896 368.141 347.334C343.309 362.653 306.945 366.578 272.939 367.686C252.905 368.349 232.787 368.293 212.838 366.799C194.319 365.473 167.888 361.492 167.551 346.671C166.962 328.86 177.232 310.941 183.545 293.741Z" fill="#4A4E31"/>
<path d="M371.409 156.635C383.11 152.376 395.062 147.897 403.479 141.039C409.792 135.84 413.664 129.59 417.2 123.341C428.142 104.205 437.149 84.6263 444.22 64.7716C444.64 63.61 445.146 62.3379 446.745 61.7294C447.924 61.2872 449.439 61.3426 450.87 61.4531C455.162 61.7848 459.456 62.0612 463.749 62.3933C465.432 62.5038 467.199 62.6697 468.378 63.4995C469.809 64.4395 469.725 65.9328 469.641 67.2603C466.947 94.1944 459.709 120.852 452.469 147.399C450.87 153.372 449.102 159.566 444.388 164.82C440.432 169.245 434.54 172.785 428.816 176.269C410.213 187.441 391.526 198.668 371.241 208.512C360.719 213.601 349.018 218.523 335.97 218.523C333.446 218.523 330.836 218.357 328.732 217.472C326.543 216.587 325.112 215.094 323.934 213.601C317.032 205.36 305.584 186.722 314.507 177.541C319.052 172.785 331.426 170.794 338.581 168.36C349.608 164.599 360.466 160.617 371.409 156.635Z" fill="#4A4E31"/>
<path d="M84.4638 253.871C86.8205 256.139 89.3458 258.517 92.8811 259.955C98.2682 262.167 105.172 261.946 111.484 261.338C136.148 258.904 159.043 251.659 181.434 244.525C198.016 239.215 214.599 233.961 231.181 228.652C237.747 226.55 244.648 224.282 248.521 220.19C251.382 217.203 252.141 213.553 252.562 210.013C253.319 203.542 252.898 197.017 251.383 190.546C251.046 189.108 250.541 187.559 248.774 186.674C247.174 185.845 244.902 185.9 242.882 186.011C229.498 186.895 217.376 191.431 205.676 195.855C188.672 202.326 171.67 208.797 154.666 215.267C145.154 218.862 135.642 222.457 125.373 224.946C122.679 225.61 119.733 226.163 117.04 225.665C115.019 225.333 113.337 224.448 111.653 223.619C90.9461 212.834 71.585 200.943 53.8241 188.057C52.3087 186.951 50.3731 185.734 48.1005 185.955C46.8379 186.121 45.8277 186.674 44.8176 187.227C38.1678 191.154 27.393 194.804 29.7499 201.109C31.8543 206.695 42.8814 213.83 47.8478 218.586C59.9691 230.366 71.8374 242.312 84.4638 253.871Z" fill="#4A4E31"/>
<path d="M317.709 106.908C315.184 108.069 314.762 110.392 314.762 112.438C314.847 119.351 317.204 126.099 319.561 132.846C320.15 134.505 320.74 136.164 321.918 137.658C323.097 139.151 325.032 140.478 327.473 140.976C330.166 141.529 333.197 141.031 335.386 139.925C338.332 138.487 339.931 136.109 340.436 133.731C340.941 131.353 340.604 128.919 340.183 126.541C339.342 121.674 338.331 116.807 335.806 112.217C334.965 110.613 333.787 108.954 331.934 107.737C329.073 105.801 321.245 105.248 317.709 106.908Z" fill="#F0F0F0"/>
<path d="M331.661 111.671C330.483 112.888 330.483 114.437 330.735 115.875C331.409 120.465 333.429 124.89 335.449 129.314C336.039 130.586 336.964 132.079 338.984 132.19C340.415 132.301 341.678 131.582 342.267 130.697C342.856 129.867 342.857 128.872 342.857 127.987C342.857 125.055 342.857 122.069 342.015 119.138C341.342 117.147 336.627 106.805 331.661 111.671Z" fill="#BFBFBF"/>
<path d="M338.841 111.08C337.747 107.54 337.662 103.834 335.978 100.405C334.632 97.5848 332.275 95.0407 329.918 92.4966C327.225 89.5652 324.447 86.5788 320.828 84.0901C314.935 80.108 307.022 77.7297 299.025 76.1259C281.096 72.5864 261.148 72.8631 244.228 78.1169C227.983 83.1498 215.02 93.105 211.316 104.609C211.232 104.885 211.063 105.217 210.979 105.494C210.895 105.66 210.81 105.825 210.81 105.991C210.81 106.157 210.81 106.268 210.81 106.434C210.726 106.821 210.558 107.263 210.558 107.651C210.475 109.033 210.642 110.416 210.895 111.854C211.4 115.338 211.905 118.822 212.41 122.251C212.41 122.528 212.494 122.86 212.663 123.081C213.336 123.91 215.188 123.855 216.619 123.689C216.956 123.634 217.292 123.579 217.545 123.468C217.882 123.247 217.882 122.915 217.798 122.583C217.629 121.532 216.787 120.537 216.198 119.541C215.104 117.55 214.935 115.393 214.935 113.237C214.935 110.25 215.271 107.263 215.945 104.277C216.113 103.613 216.872 102.286 216.45 101.456C218.134 99.4651 219.986 97.5848 221.922 95.7043C227.309 90.4504 232.948 85.0304 241.366 81.9882C244.985 80.6611 249.026 79.8867 253.066 79.3336C268.891 77.1212 285.727 78.2278 300.457 82.5967C303.571 83.537 306.686 84.5878 309.38 85.9703C311.232 86.966 312.915 88.0722 314.683 89.1784C318.134 91.3353 321.921 93.3814 324.784 95.9256C334.043 104.222 331.434 116.002 338.589 125.127C339.009 125.68 339.598 126.289 340.524 126.344C342.292 126.565 343.134 124.961 343.134 123.8C342.713 119.541 340.104 115.393 338.841 111.08Z" fill="#F0F0F0"/>
<path d="M209.788 125.379C209.452 130.688 211.135 135.887 212.903 141.086C214.081 144.515 215.428 148.22 219.637 150.488C222.162 151.871 226.034 152.424 228.559 151.152C231.168 149.824 231.338 147.335 231.169 145.123C230.58 137.933 229.233 130.522 224.772 123.886C223.341 121.729 220.815 117.747 216.27 118.023C211.22 118.355 209.957 122.724 209.788 125.379Z" fill="#BFBFBF"/>
<path d="M219.752 147.969C221.351 148.467 223.203 148.522 224.97 148.577C242.31 149.075 257.545 146.918 276.99 145.48C281.535 145.148 284.566 144.54 289.112 144.153C292.563 143.876 297.361 143.268 300.812 143.047C305.778 142.715 310.324 141.664 315.121 140.834C315.711 140.724 316.385 140.614 316.721 140.281C317.142 139.95 317.057 139.452 316.889 139.009C315.289 132.318 313.691 125.681 312.092 118.989C311.923 118.214 311.755 117.44 311.081 116.832C309.397 115.172 305.778 115.228 302.748 115.504C275.475 118.104 248.455 123.081 220.846 122.639C218.826 122.584 216.468 122.694 215.374 123.8C214.954 124.187 214.87 124.685 214.701 125.183C213.607 129.718 214.701 134.198 213.943 138.678C213.606 142.051 214.364 146.365 219.752 147.969Z" fill="#BFBFBF"/>
<path d="M242.32 119.205C247.876 118.597 253.431 117.988 259.071 117.767C264.626 117.546 270.183 117.767 275.654 117.325C284.156 116.661 292.489 114.559 301.075 114.172C303.769 114.062 306.714 114.228 308.566 115.666C309.997 116.771 310.502 118.376 310.839 119.924C312.27 125.399 313.449 130.875 314.459 136.405C314.627 137.124 314.711 137.954 314.29 138.618C313.869 139.336 312.943 139.834 312.018 140.166C309.492 141.106 306.63 141.383 303.853 141.604C283.398 143.429 262.943 145.254 242.489 147.079C234.408 147.798 225.822 148.462 218.584 145.586C217.657 145.199 216.647 144.757 216.142 144.038C215.553 143.263 215.469 142.378 215.469 141.493C215.301 137.843 215.301 134.248 215.301 130.598C215.301 128.33 214.206 124.127 216.647 122.413C219.005 120.753 225.149 120.975 228.179 120.643C232.893 120.256 237.606 119.703 242.32 119.205Z" fill="#F0F0F0"/>
<path d="M303.011 117.542C302.253 117.266 301.327 117.211 300.485 117.211C298.717 117.211 294.088 117.321 293.078 118.483C292.32 119.312 293.078 121.137 294.509 121.525C294.93 121.635 295.518 121.635 295.939 121.635C297.707 121.58 299.475 121.469 301.158 121.192C301.916 121.082 302.673 120.971 303.263 120.639C304.694 119.865 304.526 118.151 303.011 117.542Z" fill="#4D4D4D"/>
<path d="M287.415 120.146C287.331 120.754 288.595 121.196 289.437 120.865C290.446 120.477 289.688 119.593 289.688 119.593C288.846 119.206 287.499 119.537 287.415 120.146Z" fill="#4D4D4D"/>
<path d="M353.469 654.513C357.762 654.513 362.391 655.067 365.59 656.891C369.21 658.992 370.472 662.313 371.566 665.354C372.492 667.844 373.334 670.331 374.26 672.821C374.344 673.098 374.429 673.372 374.26 673.649C374.008 674.038 373.25 674.203 372.66 674.315C363.233 675.862 321.988 680.397 317.526 672.211C315.422 668.286 326.112 661.815 330.237 659.823C336.887 656.561 345.052 654.569 353.469 654.513Z" fill="#E0C74E"/>
<path d="M7.8601 231.581C10.1328 227.82 11.1428 224.004 11.9846 219.966C12.4055 217.699 6.93389 217.699 6.51299 219.966C5.75543 224.004 4.57715 227.322 2.47278 231.083C1.04181 233.627 -0.220118 236.005 0.0324067 238.771C0.453282 243.693 5.0821 247.564 9.71169 251.159C10.4693 251.767 12.0691 250.993 11.3116 250.329C4.66174 244.08 3.65135 238.605 7.8601 231.581Z" fill="#BFBFBF"/>
<path d="M36.1559 154.807C33.5465 153.424 30.6011 152.373 27.4867 151.599C24.9615 150.991 21.7627 150.714 19.995 152.042C19.2374 152.595 18.9005 153.369 18.7322 154.143C18.0587 156.411 18.1431 158.734 17.8906 161.057C17.2172 166.477 14.6074 171.62 12.2505 176.819C7.45256 187.493 3.91711 198.388 1.64439 209.394C1.47604 210.39 1.22351 211.385 1.64439 212.325C2.06527 213.21 2.90701 213.985 3.74876 214.759C6.02147 217.026 7.78938 219.681 11.3247 221.119C15.9543 223.055 22.9403 221.783 25.4655 218.575C27.0649 216.529 26.9814 214.15 27.3182 211.883L27.6542 208.731C29.7585 198.665 31.8629 188.544 33.9673 178.478C35.2299 172.339 36.4933 166.2 38.9343 160.227C39.271 159.342 39.6914 158.457 39.4389 157.572C38.9338 156.521 37.5027 155.581 36.1559 154.807Z" fill="#F0F0F0"/>
<path d="M23.1005 153.372C18.1342 151.104 14.5987 147.509 13.5044 143.583C12.6627 140.707 13.0832 137.72 14.1775 134.9C15.0192 132.688 16.4507 130.42 18.8918 128.761C20.5753 127.599 22.8479 126.714 25.1206 126.161C33.3698 124.004 43.3022 124.945 50.1204 128.595C57.0225 132.245 60.3897 138.55 58.5379 144.191C55.0026 154.589 36.316 159.456 23.1005 153.372Z" fill="#BFBFBF"/>
<path d="M503.944 89.0642C505.962 85.248 506.805 81.4318 507.392 77.3947C507.728 75.0718 502.177 75.2377 501.923 77.5051C501.418 81.5426 500.407 84.9163 498.556 88.7325C497.293 91.3317 496.115 93.7099 496.536 96.475C497.293 101.397 502.006 105.103 506.89 108.587C507.648 109.14 509.159 108.366 508.486 107.702C501.417 101.674 500.071 96.1986 503.944 89.0642Z" fill="#BFBFBF"/>
<path d="M440.323 23.732C437.124 24.2297 434.01 25.1146 431.148 26.276C428.875 27.2162 426.603 28.7095 427.108 30.4794C427.36 31.1983 428.033 31.862 428.875 32.4151C431.232 34.1295 434.095 35.5124 436.704 37.1162C442.764 40.7662 447.394 45.3014 452.192 49.7261C462.04 58.7407 472.983 67.258 484.852 75.2219C485.862 75.9409 487.039 76.6602 488.386 76.992C489.733 77.3237 491.164 77.3237 492.595 77.4342C496.72 77.6001 501.013 78.3191 504.887 77.3792C510.022 76.1622 512.798 71.7932 510.524 68.4747C509.094 66.3731 506.147 64.9903 503.622 63.4418L500.002 61.3403C489.144 54.0951 478.286 46.7948 467.427 39.5496C460.861 35.1252 454.212 30.7005 448.487 25.7783C447.646 25.0593 446.804 24.285 445.542 23.8979C444.111 23.3448 442.09 23.5107 440.323 23.732Z" fill="#F0F0F0"/>
<path d="M430.636 29.6562C424.828 30.8176 418.346 30.4858 412.959 28.6607C409.003 27.3334 405.636 25.287 402.943 22.9642C400.754 21.1391 398.902 19.0926 398.397 16.7697C398.06 15.1658 398.397 13.5068 399.07 11.9029C401.511 6.31701 408.75 1.72649 417.336 0.399144C425.922 -0.928203 435.602 1.11814 441.242 5.59796C451.679 13.8386 446.039 26.5037 430.636 29.6562Z" fill="#BFBFBF"/>
<path d="M802.705 724.334C823.365 724.475 846.927 724.012 860.16 716.346C863.233 714.545 865.623 712.331 865.111 710.021C864.087 705.034 851.537 702.911 841.293 702.08C781.448 697.277 720.237 699.125 659.709 701.064C621.891 702.264 583.644 703.465 547.618 709.052C528.836 711.96 513.897 719.535 537.63 722.859C560.594 726.091 595.767 722.996 619.927 723.137C680.796 723.506 741.751 723.921 802.705 724.334Z" fill="url(#paint2_linear_251_6)"/>
<path d="M802.73 724.334C823.39 724.475 846.952 724.012 860.184 716.346C863.258 714.545 865.648 712.331 865.136 710.021C864.112 705.034 851.562 702.911 841.318 702.08C781.473 697.277 720.262 699.125 659.734 701.064C621.915 702.264 583.669 703.465 547.643 709.052C528.861 711.96 513.922 719.535 537.655 722.859C560.619 726.091 595.792 722.996 619.952 723.137C680.821 723.506 741.775 723.921 802.73 724.334Z" fill="url(#paint3_linear_251_6)"/>
<path d="M619.221 701.609C624.258 701.609 629.38 701.656 634.417 701.656C635.271 701.656 636.209 701.656 636.893 701.331C637.49 701.008 637.661 700.546 637.831 700.083C638.514 697.222 639.197 694.312 639.965 691.451C639.88 691.82 622.977 690.203 620.928 691.126C616.916 692.789 619.136 699.208 619.221 701.609Z" fill="#F0E5D4"/>
<path d="M726.704 701.57C731.484 701.617 736.265 701.617 741.132 701.57C742.668 701.57 744.376 701.524 745.486 700.923C746.595 700.323 746.68 699.354 746.68 698.522C746.68 696.215 746.68 693.907 746.68 691.597C746.68 691.365 746.681 691.09 746.425 690.859C746.083 690.534 745.314 690.49 744.631 690.443C740.79 690.212 729.35 689.518 726.789 691.412C725.679 692.197 727.386 701.617 726.704 701.57Z" fill="#F0E5D4"/>
<path d="M738.138 301.998C753.59 291.747 767.847 303.06 773.396 312.942C795.763 352.792 802.849 395.551 809.764 437.848C810.874 444.635 811.984 451.379 813.094 458.167C817.106 482.547 821.033 506.974 825.046 531.355C825.302 532.787 780.568 538.928 776.726 539.575C753.334 543.314 729.089 543.545 705.271 542.667C675.476 541.56 645.853 538.743 615.888 538.928C603.168 539.021 590.191 539.621 577.812 537.68C582.934 523.458 583.447 508.819 584.642 494.322C587.374 459.32 593.692 424.411 599.923 389.548C603.424 369.969 605.558 349.975 609.997 330.581C612.473 319.96 620.413 301.398 637.402 296.688C655.5 291.701 664.122 304.722 678.72 308.047C695.368 311.879 715.857 312.48 731.223 305.784C734.126 304.584 736.174 303.245 738.138 301.998Z" fill="#333333"/>
<path d="M595.096 192.891C596.034 190.998 596.376 188.966 596.12 187.027C595.864 185.087 594.413 182.825 590.827 182.455C587.327 182.086 584.424 183.887 582.717 185.549C574.692 193.168 572.643 202.126 570.765 210.807C576.314 211.731 582.119 212.239 587.839 212.193C587.839 208.545 589.461 204.943 592.62 201.711C596.035 198.294 601.242 195.015 600.73 191.136C599.791 191.09 598.852 191.044 597.827 190.998C596.888 191.598 596.034 192.244 595.096 192.891Z" fill="#E8DBCE"/>
<path d="M706.655 320.791C700.252 308.785 650.738 303.798 632.127 298.996C611.979 293.778 593.795 286.298 579.112 277.201C575.868 275.169 572.709 272.999 571.001 270.459C566.391 263.579 590.978 211.169 588.844 210.8L567.587 207.383C557.513 222.713 547.183 238.044 537.365 253.42C529.767 265.288 516.62 277.663 520.803 290.685C523.535 298.904 539.926 304.445 550.768 310.402C562.806 317.051 590.807 332.151 606.088 340.601L651.761 365.582C661.921 377.865 685.398 345.08 691.544 340.878C698.63 335.891 710.241 327.579 706.655 320.791Z" fill="#333333"/>
<path d="M622.781 580.177C625.854 545.867 619.365 510.819 619.963 476.327C617.914 464.368 621.244 452.175 629.61 440.91C630.122 440.216 630.72 439.478 631.744 438.968C634.988 437.308 640.452 438.183 644.635 439.062C685.357 447.513 733.506 445.527 770.642 433.568C777.984 439.2 780.118 446.128 781.911 452.775C784.813 463.58 788.058 474.341 788.826 485.191V485.237C788.997 487.548 789.083 489.902 788.997 492.21C788.485 505.741 783.277 519.038 779.265 532.338C776.619 541.018 774.313 549.793 774.057 558.566C773.887 565.77 771.838 568.402 770.045 578.607C766.886 596.338 764.838 615.685 761.508 633.418C757.923 652.396 754.422 671.421 751.519 690.446C751.434 691.184 751.263 691.968 751.178 692.706C749.299 692.985 720.273 696.355 720.273 692.522C717.968 655.582 715.579 618.642 713.273 581.7C712.335 566.139 711.224 550.394 703.456 535.571C700.212 535.755 697.053 535.893 693.809 536.078C676.137 584.932 669.392 633.603 651.721 682.457C650.184 686.75 648.306 691.415 642.672 694.185C637.038 696.955 615.524 696.449 613.816 692.153C618.768 654.888 619.366 617.532 622.781 580.177Z" fill="#363F4C"/>
<path d="M722.942 697.908C733.271 697.448 743.772 697.679 753.931 698.602C761.785 701.788 770.493 704.42 779.628 706.406C782.274 707.006 785.092 707.559 787.055 708.669C789.019 709.776 789.787 711.671 787.994 712.871C786.372 713.887 783.554 714.025 781.078 714.025C761.956 714.116 742.833 713.24 724.052 711.392C722.942 711.299 721.747 711.161 720.893 710.699C720.21 710.33 719.953 709.87 719.697 709.36C717.734 705.574 718.929 701.281 722.942 697.908Z" fill="#736357"/>
<path d="M643.293 698.205C632.878 698.112 622.549 698.665 612.39 699.913C604.877 703.33 596.511 706.238 587.632 708.548C585.071 709.195 582.339 709.839 580.546 711.04C578.753 712.241 578.156 714.135 580.12 715.289C581.827 716.258 584.644 716.305 587.12 716.214C606.243 715.705 625.196 714.182 643.806 711.734C644.916 711.596 646.111 711.412 646.879 710.949C647.477 710.58 647.733 710.071 647.904 709.611C649.355 705.684 647.647 701.435 643.293 698.205Z" fill="#736357"/>
<path d="M697.5 296.427C706.123 296.38 714.061 293.702 720.037 290.332C742.319 277.864 741.636 258.285 739.502 240.969C739.246 239.122 738.99 237.183 737.026 235.659C734.038 233.304 728.233 232.704 723.026 232.38C700.744 232.38 678.803 232.934 656.351 233.535C654.473 233.581 652.424 233.673 650.973 234.274C649.35 234.966 648.838 236.074 648.497 237.136C646.96 242.124 649.948 247.341 649.777 252.421C649.606 257.639 650.033 262.903 651.74 268.028C654.985 278.049 663.522 287.376 679.571 293.056C684.95 294.995 691.097 296.427 697.5 296.427Z" fill="#F0E5D4"/>
<path d="M790.815 451.943C791.413 451.899 791.669 451.759 791.328 451.437C789.022 449.542 785.351 446.125 781.595 442.063C778.778 422.022 774.339 401.935 766.741 382.172C757.265 357.837 736.946 335.257 724.824 311.292C721.238 304.273 715.261 304.227 698.614 304.596C691.955 304.411 689.139 304.873 688.627 304.919C677.87 304.596 681.541 305.612 672.748 304.18C663.015 302.564 652.856 306.72 652.856 311.107C652.856 315.771 652.685 320.434 652.429 325.144C635.441 363.24 625.196 401.935 622.037 440.816C622.037 440.863 622.037 440.907 622.037 440.954C621.098 442.939 620.159 444.924 619.135 446.957C617.001 449.958 614.695 453.375 614.439 456.054C614.269 456.33 614.183 456.561 614.013 456.839C612.22 460.257 616.403 463.211 623.318 464.365C676.504 473.278 733.446 471.847 784.412 460.716C785.095 460.579 785.778 460.394 786.29 460.21C786.717 460.116 787.144 460.025 787.656 459.932C788.425 459.656 789.279 459.378 790.047 459.103C791.84 458.271 792.95 457.161 793.291 456.008C793.718 454.713 792.864 453.1 790.815 451.943Z" fill="#1A1A1A"/>
<path d="M677.707 182.081C671.56 182.081 665.499 182.081 659.352 181.666C656.791 181.481 656.535 183.467 658.926 183.744C664.902 184.482 670.878 185.267 676.939 185.729C681.378 186.052 681.976 182.081 677.707 182.081Z" fill="#666666"/>
<path d="M640.812 158.074C640.044 159.459 640.044 160.937 639.958 162.322C639.872 163.846 639.275 165.554 640.044 167.032C640.385 167.771 642.434 168.325 643.373 167.494C644.739 166.201 644.995 164.677 645.593 163.246C646.19 161.676 647.044 160.059 646.873 158.443C646.703 156.735 641.666 156.458 640.812 158.074Z" fill="#666666"/>
<path d="M668.236 164.862C665.334 165.739 662.858 166.94 660.297 168.141C658.077 169.203 655.687 170.172 654.321 171.604C653.638 172.25 655.003 173.081 656.284 172.943C658.846 172.666 660.98 171.835 663.114 171.096C666.017 170.08 669.176 169.156 671.566 167.817C673.956 166.524 671.737 163.846 668.236 164.862Z" fill="#666666"/>
<path d="M837.428 327.311C830.257 322.832 763.412 289.816 743.691 307.732C734.556 316.09 754.106 323.017 764.095 328.465C779.547 336.869 795.085 345.273 810.537 353.677C826.587 362.405 842.721 371.132 854.587 380.783C869.186 392.604 877.296 405.718 878.492 419.478C878.662 421.326 878.748 423.219 881.053 424.743C883.443 426.266 888.736 427.236 894.456 426.59C903.846 425.481 907.091 421.418 907.688 418.324C914.347 384.338 880.284 354.278 837.428 327.311Z" fill="#333333"/>
<path d="M883.019 426.956C882.25 429.311 879.348 431.62 880.885 433.882C881.738 435.177 884.042 436.193 884.384 437.531C884.64 438.453 883.872 439.332 884.043 440.254C884.214 441.408 885.835 442.38 887.713 442.933C889.591 443.487 891.811 443.625 893.945 443.625C896.165 443.671 898.471 443.581 900.264 442.933C901.971 442.333 902.995 441.364 903.763 440.348C905.385 438.131 905.471 435.636 904.788 433.282C904.105 430.927 902.654 428.665 901.203 426.402C900.776 425.802 900.348 425.155 899.409 424.74C898.641 424.416 897.617 424.324 896.593 424.232C893.519 424.001 890.275 424.047 887.202 424.278C883.275 424.647 883.616 425.017 883.019 426.956Z" fill="#F0E5D4"/>
<path d="M607.859 174.923C609.652 172.799 611.615 170.444 615.03 169.243C618.958 167.812 623.312 168.412 626.982 169.243C631.166 170.213 635.177 171.367 638.934 172.753C640.556 173.353 644.398 174.692 644.995 175.8C645.849 177.416 643.63 179.125 642.008 180.833C631.934 190.946 624.25 199.581 614.177 208.585C612.81 209.832 611.103 211.217 608.798 211.587C607.347 211.817 605.981 211.587 604.7 211.356C597.871 209.97 576.955 206.046 583.358 199.35C591.297 191.085 600.688 183.465 607.859 174.923Z" fill="#3D3D3D"/>
<path d="M611.717 173.54C612.57 172.801 613.595 172.016 614.961 171.647C616.497 171.231 618.119 171.508 619.485 171.785C625.291 172.986 630.84 174.602 636.303 176.172C637.157 176.403 639.377 177.049 639.804 177.604C640.145 177.927 640.742 178.527 640.742 178.943C640.742 180.374 638.608 181.575 637.584 183.006C636.645 184.299 634.937 185.361 633.827 186.608C632.632 187.947 631.181 189.286 629.815 190.579C627.851 192.518 625.888 194.504 624.095 196.536C622.814 197.967 621.363 199.399 620.254 200.877C619.741 201.569 618.973 202.262 617.948 202.677C616.497 203.324 615.046 203.277 613.594 203C610.777 202.493 608.131 201.708 605.569 200.922C601.728 199.768 597.886 198.614 593.959 197.459C592.593 197.044 589.434 196.443 590.032 195.104C590.288 194.366 591.654 193.488 592.337 192.842C593.276 191.964 594.215 191.041 595.069 190.164C598.654 186.608 601.899 182.96 605.484 179.358C607.448 177.373 609.497 175.433 611.717 173.54Z" fill="white"/>
<path d="M634.253 173.487C633.911 173.302 633.398 173.164 632.972 173.025C631.948 172.748 630.838 172.425 629.813 172.148C629.216 171.963 628.362 171.779 628.106 171.963C627.935 172.056 628.02 172.194 628.19 172.287C628.788 172.841 633.825 174.457 634.679 174.041C634.764 173.903 634.594 173.672 634.253 173.487Z" fill="#5E625E"/>
<path d="M627.581 171.648C627.581 171.509 627.325 171.37 627.069 171.37C626.813 171.37 626.556 171.463 626.3 171.601C626.129 171.694 626.044 171.786 626.044 171.925C626.044 172.156 626.472 172.294 626.813 172.248C627.154 172.202 627.495 171.971 627.581 171.74V171.648Z" fill="#5E625E"/>
<path d="M598.295 202.494C597.527 202.587 596.844 202.864 596.332 203.233C596.076 203.418 595.819 203.603 595.649 203.787C595.222 204.295 595.393 204.849 595.82 205.311C596.246 205.726 597.1 206.05 597.868 206.188C598.124 206.235 598.295 206.281 598.551 206.235C598.807 206.235 599.063 206.142 599.32 206.05C600.259 205.726 601.027 205.172 601.283 204.572C601.88 203.51 600.344 202.217 598.295 202.494Z" fill="#EBEFEB"/>
<path d="M747.184 229.656C746.33 227.162 745.135 224.669 742.403 222.637C739.329 220.282 734.379 218.805 729.256 217.973C724.134 217.188 718.756 217.004 713.463 216.911C690.584 216.542 666.594 217.65 647.13 224.207C645.935 224.623 644.74 225.038 643.886 225.638C642.947 226.239 642.434 227.024 641.922 227.763C639.532 231.272 637.056 234.828 636.629 238.568C636.288 241.339 636.971 244.155 637.739 246.926C638.764 250.62 639.873 254.268 641.666 257.87C644.74 264.15 649.861 270.152 656.264 275.647C652.166 270.706 652.764 265.073 653.704 259.67C654.13 256.9 654.642 254.175 655.154 251.405C655.666 248.588 656.434 245.494 660.276 243.601C663.776 241.8 668.984 241.477 673.765 241.431C678.546 241.385 683.582 241.569 687.936 240.553L689.302 237.598C689.132 239.307 690.839 240.969 693.314 242.077C695.79 243.186 698.779 243.786 701.852 244.248C705.181 244.755 708.596 245.125 712.011 244.986C715.341 244.848 718.585 244.201 721.915 244.017C725.244 243.832 729 244.109 731.134 245.494C733.183 246.787 733.268 248.634 733.354 250.343C733.61 255.145 734.464 259.901 735.83 264.611C736.342 264.103 736.939 263.596 737.452 263.134C739.927 264.473 738.22 266.643 737.11 268.398C735.829 270.337 735.488 272.461 736 274.493C739.586 269.46 743.171 264.427 745.647 259.162C750.086 249.512 750.684 239.399 747.184 229.656Z" fill="#736357"/>
<defs>
<linearGradient id="paint0_linear_251_6" x1="28.16" y1="668.652" x2="421.993" y2="668.652" gradientUnits="userSpaceOnUse">
<stop stop-color="#4D4D4D"/>
<stop offset="1"/>
</linearGradient>
<linearGradient id="paint1_linear_251_6" x1="28.138" y1="668.652" x2="421.971" y2="668.652" gradientUnits="userSpaceOnUse">
<stop/>
<stop offset="1"/>
</linearGradient>
<linearGradient id="paint2_linear_251_6" x1="525.352" y1="711.69" x2="865.164" y2="711.69" gradientUnits="userSpaceOnUse">
<stop stop-color="#4D4D4D"/>
<stop offset="1"/>
</linearGradient>
<linearGradient id="paint3_linear_251_6" x1="525.377" y1="711.69" x2="865.189" y2="711.69" gradientUnits="userSpaceOnUse">
<stop/>
<stop offset="1"/>
</linearGradient>
</defs>
</svg>
