<svg width="278" height="138" viewBox="0 0 278 138" fill="none" xmlns="http://www.w3.org/2000/svg">
<circle cx="50" cy="61" r="50" fill="#090808"/>
<path d="M71.08 81.856L71.752 82.624C70.056 84.992 68.248 86.608 66.328 87.472C64.408 88.336 62.056 88.768 59.272 88.768C55.176 88.768 51.688 87.088 48.808 83.728C45.928 80.304 44.504 76.112 44.536 71.152C44.6 66.16 46.04 62.096 48.856 58.96C51.672 55.792 55.144 54.208 59.272 54.208C61.896 54.208 63.8 54.336 64.984 54.592C66.168 54.816 67.592 55.248 69.256 55.888V63.424H67.816C67.592 60.608 66.84 58.576 65.56 57.328C64.28 56.048 62.232 55.472 59.416 55.6C53.208 55.888 50.104 61.184 50.104 71.488C50.104 76.032 50.904 79.76 52.504 82.672C54.168 85.552 56.344 87.024 59.032 87.088C61.72 87.12 63.928 86.736 65.656 85.936C67.384 85.104 69.192 83.744 71.08 81.856Z" fill="white"/>
<path d="M50.7682 56.84C50.7682 60.552 49.2802 63.384 46.3042 65.336C43.7442 67.032 40.5282 67.88 36.6562 67.88C34.3202 67.88 31.7122 67.336 28.8322 66.248L28.8802 58.616H30.3202C30.5122 61.144 31.2642 62.968 32.5762 64.088C33.1842 64.6 34.0802 65.032 35.2642 65.384C36.4482 65.736 37.5202 65.896 38.4802 65.864C40.6882 65.832 42.6242 65.24 44.2882 64.088C45.9202 62.904 46.7682 61.32 46.8322 59.336C46.8322 57.256 46.0962 55.592 44.6242 54.344C43.1842 53.096 41.1842 52.328 38.6242 52.04C31.8082 51.208 28.4002 48.36 28.4002 43.496C28.4002 40.104 29.6962 37.528 32.2882 35.768C34.4962 34.232 37.1842 33.464 40.3522 33.464C41.2802 33.464 42.3842 33.608 43.6642 33.896C44.9442 34.152 45.7602 34.28 46.1122 34.28C46.4962 34.28 46.7522 34.04 46.8802 33.56H48.2242V42.152H46.7842C46.5602 39.784 45.8402 38.072 44.6242 37.016C43.4402 35.96 41.6642 35.448 39.2962 35.48C34.6242 35.544 32.3202 37.64 32.3842 41.768C32.4482 45.448 35.0082 47.544 40.0642 48.056C47.2002 48.824 50.7682 51.752 50.7682 56.84Z" fill="white"/>
<path d="M124.984 55.8C125.976 56.312 127.24 56.824 128.776 57.336C130.312 57.848 131.768 58.104 133.144 58.104C135.096 58.104 136.552 57.8 137.512 57.192C138.504 56.584 139 55.704 139 54.552C139 53.464 138.344 52.504 137.032 51.672C135.752 50.808 134.328 49.976 132.76 49.176C130.456 47.992 128.248 46.616 126.136 45.048C124.056 43.448 123.016 41.208 123.016 38.328C123.016 35.864 123.992 33.8 125.944 32.136C127.896 30.44 130.664 29.592 134.248 29.592C135.88 29.592 137.512 29.848 139.144 30.36C140.776 30.872 142.216 31.432 143.464 32.04L141.4 37.032C140.408 36.552 139.336 36.104 138.184 35.688C137.032 35.24 135.752 35.016 134.344 35.016C132.968 35.016 131.8 35.288 130.84 35.832C129.912 36.376 129.448 37.208 129.448 38.328C129.448 39.512 130.008 40.504 131.128 41.304C132.28 42.072 133.656 42.856 135.256 43.656L135.592 43.848C137.896 45.032 140.104 46.44 142.216 48.072C144.36 49.672 145.432 51.864 145.432 54.648C145.432 57.24 144.376 59.384 142.264 61.08C140.184 62.776 137.176 63.624 133.24 63.624C131.864 63.624 130.088 63.32 127.912 62.712C125.768 62.104 124.328 61.48 123.592 60.84L124.984 55.8ZM173.164 63L168.316 48.744L163.66 63H158.38L150.652 40.584L157.084 39.72L161.164 53.256L165.004 39.72H171.868L175.948 53.256L179.74 39.72H186.316L178.396 63H173.164ZM195.575 29.4C196.567 29.4 197.399 29.736 198.071 30.408C198.775 31.08 199.127 31.912 199.127 32.904C199.127 33.896 198.775 34.728 198.071 35.4C197.399 36.072 196.567 36.408 195.575 36.408C194.615 36.408 193.799 36.072 193.127 35.4C192.455 34.728 192.119 33.896 192.119 32.904C192.119 31.912 192.455 31.08 193.127 30.408C193.799 29.736 194.615 29.4 195.575 29.4ZM198.695 39.72V63H192.455V39.72H198.695ZM218.272 58.248C220.416 58.248 221.92 57.48 222.784 55.944C223.648 54.376 224.08 52.792 224.08 51.192C224.08 49.368 223.696 47.736 222.928 46.296C222.16 44.856 220.608 44.136 218.272 44.136C217.6 44.136 216.896 44.264 216.16 44.52C215.456 44.744 214.784 45.064 214.144 45.48V56.904C214.784 57.288 215.456 57.608 216.16 57.864C216.896 58.12 217.6 58.248 218.272 58.248ZM207.952 39.72H211.12L212.464 41.448C213.52 40.648 214.752 40.008 216.16 39.528C217.568 39.048 218.816 38.808 219.904 38.808C223.328 38.808 225.952 39.992 227.776 42.36C229.6 44.728 230.512 47.672 230.512 51.192C230.512 54.712 229.568 57.656 227.68 60.024C225.824 62.392 223.232 63.576 219.904 63.576C219.072 63.576 218.128 63.432 217.072 63.144C216.048 62.856 215.072 62.456 214.144 61.944V73.032L207.952 73.512V39.72ZM250.435 63.576C246.403 63.576 243.219 62.472 240.883 60.264C238.579 58.056 237.427 55.096 237.427 51.384C237.427 47.672 238.467 44.696 240.547 42.456C242.659 40.216 245.523 39.096 249.139 39.096C252.787 39.096 255.459 40.312 257.155 42.744C258.883 45.144 259.747 47.992 259.747 51.288V53.208H244.051C244.339 54.744 245.043 55.976 246.163 56.904C247.283 57.8 248.755 58.248 250.579 58.248C251.635 58.248 252.579 58.12 253.411 57.864C254.275 57.576 255.267 57.176 256.387 56.664L258.211 61.176C257.123 62.008 255.795 62.616 254.227 63C252.691 63.384 251.427 63.576 250.435 63.576ZM253.843 49.032C253.523 47.464 252.947 46.312 252.115 45.576C251.283 44.808 250.243 44.424 248.995 44.424C247.715 44.424 246.643 44.824 245.779 45.624C244.915 46.392 244.355 47.528 244.099 49.032H253.843Z" fill="black"/>
<path d="M201.24 87.264C199.704 86.784 198.488 86.448 197.592 86.256C196.696 86.032 195.608 85.92 194.328 85.92C191.736 85.92 189.736 86.976 188.328 89.088C186.92 91.2 186.216 94.096 186.216 97.776C186.216 100.944 186.808 103.68 187.992 105.984C189.176 108.288 191.16 109.44 193.944 109.44C195.32 109.44 196.6 109.296 197.784 109.008C199 108.72 200.104 108.368 201.096 107.952L203.448 112.56C202.2 113.2 200.696 113.712 198.936 114.096C197.176 114.48 195.624 114.672 194.28 114.672C189.192 114.672 185.496 113.04 183.192 109.776C180.888 106.512 179.736 102.528 179.736 97.824C179.736 92.8 181 88.688 183.528 85.488C186.088 82.288 189.752 80.688 194.52 80.688C195.48 80.688 196.808 80.848 198.504 81.168C200.2 81.488 201.752 82.032 203.16 82.8L201.24 87.264ZM224.989 97.008C223.869 96.496 222.829 96.112 221.869 95.856C220.909 95.568 219.885 95.424 218.797 95.424C217.997 95.424 217.373 95.584 216.925 95.904C216.509 96.192 216.301 96.608 216.301 97.152C216.301 97.536 216.557 97.904 217.069 98.256C217.613 98.608 218.477 98.992 219.661 99.408C221.613 100.112 223.421 101.104 225.085 102.384C226.749 103.632 227.581 105.264 227.581 107.28C227.581 109.584 226.749 111.376 225.085 112.656C223.453 113.936 221.053 114.576 217.885 114.576C216.893 114.576 215.565 114.384 213.901 114C212.269 113.616 210.909 113.008 209.821 112.176L211.693 107.664C212.813 108.176 213.885 108.576 214.909 108.864C215.965 109.12 216.925 109.248 217.789 109.248C218.941 109.248 219.821 109.088 220.429 108.768C221.037 108.448 221.341 108.032 221.341 107.52C221.341 106.88 221.037 106.304 220.429 105.792C219.821 105.28 218.861 104.816 217.549 104.4C215.693 103.792 213.933 102.928 212.269 101.808C210.637 100.656 209.821 99.12 209.821 97.2C209.821 94.992 210.637 93.264 212.269 92.016C213.901 90.736 216.109 90.096 218.893 90.096C219.885 90.096 221.165 90.304 222.733 90.72C224.301 91.136 225.677 91.744 226.861 92.544L224.989 97.008ZM239.564 107.04C239.564 107.712 239.836 108.32 240.38 108.864C240.924 109.376 241.644 109.632 242.54 109.632C243.404 109.632 244.268 109.44 245.132 109.056C246.028 108.672 246.876 108.096 247.676 107.328V103.776H242.972C241.884 103.776 241.036 104.112 240.428 104.784C239.852 105.456 239.564 106.208 239.564 107.04ZM242.636 114.576C239.788 114.576 237.676 113.888 236.3 112.512C234.924 111.104 234.236 109.28 234.236 107.04C234.236 104.64 235.052 102.8 236.684 101.52C238.316 100.24 240.444 99.6 243.068 99.6H247.628C247.596 98.416 247.244 97.504 246.572 96.864C245.932 96.192 245.036 95.856 243.884 95.856C242.796 95.856 241.612 96.016 240.332 96.336C239.052 96.624 237.98 96.976 237.116 97.392L235.436 92.208C236.332 91.6 237.692 91.104 239.516 90.72C241.372 90.304 242.796 90.096 243.788 90.096C246.572 90.096 248.956 90.912 250.94 92.544C252.924 94.144 253.916 96.192 253.916 98.688V114H250.7L249.164 112.032C248.3 112.704 247.276 113.296 246.092 113.808C244.94 114.32 243.788 114.576 242.636 114.576ZM276.938 113.52C276.426 113.936 275.69 114.272 274.73 114.528C273.802 114.816 272.97 114.96 272.234 114.96C269.354 114.96 267.082 114.24 265.418 112.8C263.786 111.328 262.97 109.248 262.97 106.56V95.568H259.85V90.768H262.97V85.248L269.162 84.144V90.768H273.386L275.306 95.568H269.162V105.456C269.162 106.672 269.45 107.68 270.026 108.48C270.602 109.248 271.45 109.632 272.57 109.632C272.986 109.632 273.402 109.584 273.818 109.488C274.234 109.392 274.666 109.232 275.114 109.008L276.938 113.52Z" fill="black"/>
</svg>
